<svg width="512" height="512" viewBox="0 0 512 512" fill="none" xmlns="http://www.w3.org/2000/svg">
  <rect width="512" height="512" rx="64" fill="#dc2626"/>
  <path d="M256 96C203.2 96 160 139.2 160 192V256H96C78.3 256 64 270.3 64 288V384C64 401.7 78.3 416 96 416H160V320H256V416H320V384C320 366.3 334.3 352 352 352H416C433.7 352 448 337.7 448 320V224C448 206.3 433.7 192 416 192H352V128C352 110.3 337.7 96 320 96H256Z" fill="white"/>
  <circle cx="256" cy="160" r="32" fill="#dc2626"/>
  <rect x="224" y="192" width="64" height="16" rx="8" fill="#dc2626"/>
  <rect x="208" y="224" width="96" height="16" rx="8" fill="#dc2626"/>
</svg>
